# xmcd
#
# Track frame offsets: 
#        183
#        66933
#        92658
#        143208
#        210708
#
# Disc length: 3729 seconds
#
# Revision: 3
# Processed by: cddbd v1.5.2PL0 Copyright (c) Steve Scherf et al.
# Submitted via: ExactAudioCopy v0.99pb5
#
DISCID=460e8f05
DTITLE=Various Artist - Igor Markevitch - Klassik für Millionen
DYEAR=1965
DGENRE=Classical
TTITLE0=Maurice Ravel - Bolero
TTITLE1=Emmanuel Chabrier - España
TTITLE2=Alexander Borodin - Polowetzer Tänze
TTITLE3=Nikolai Rimsky Korssakoff - Capriccio espagnol op. 34
TTITLE4=Peter Iljitsch Tschaikowsky - Ouverture solenelle »1812«
EXTD=
EXTT0=
EXTT1=
EXTT2=
EXTT3=
EXTT4=
PLAYORDER=
